<svg xmlns="http://www.w3.org/2000/svg" viewBox="0 0 357.63 400.71"><defs><style>.cls-1{fill:#dd2c29;}</style></defs><title>2-Shield</title><g id="Layer_2" data-name="Layer 2"><g id="Layer_1-2" data-name="Layer 1"><path class="cls-1" d="M180.89,400.71l-7-3.62a299.65,299.65,0,0,1-108.39-94C43.19,271.55,26.22,234.9,15,194.18-3.89,125.2.34,68.75.53,66.38l.8-10L178.26,0,355.91,54l.93,10c.22,2.37,5.19,58.76-12.83,128-10.64,40.86-27.13,77.73-49,109.6A299.65,299.65,0,0,1,187.84,397ZM30.07,78.67A397.76,397.76,0,0,0,44.23,187.18c10.31,37.18,25.82,70.52,46.1,99.1a269.23,269.23,0,0,0,90.33,80.42,269.23,269.23,0,0,0,89.6-82.07c19.91-29,35-62.69,44.72-100.17a396,396,0,0,0,12.5-107.74l-149-45.31Z"/><path class="cls-1" d="M142.6,261.2c-7.4-4.9-12.9-13.5-16.7-25.6c-3.8-12.2-5.6-29.2-5.6-50.9c0-32,5.4-54.8,16.1-68.4 c10.7-13.6,26.7-20.3,48.1-20.3c16.9,0,31.3,1.2,43.5,3.7v26.9h-40.2c-11.3,0-19.7,3.5-25.2,10.6c-5.4,7.1-8.2,17.6-8.2,31.7,c9.2-2.6,22-3.9,38.4-3.9c16.2,0,27.9,3.3,34.8,10c7,6.7,10.5,16.4,10.5,29.1v24.4c0,13.8-3.8,24-11.3,30.5,c-7.5,6.5-17.8,9.8-30.8,9.8h-24.8C159.5,268.6,149.9,266.1,142.6,261.2z M188.1,238c5.2,0,9.2-1.3,11.8-3.8 c2.7-2.5,4-6.7,4-12.5v-11.3c0-6.4-1.6-10.8-4.7-13.1c-3.1-2.3-8.5-3.4-16-3.4h-29c0,11.5,0.8,20.4,2.5,26.8,c1.7,6.4,4.2,10.8,7.6,13.5c3.4,2.6,7.9,3.9,13.6,3.9H188.1z"/></g></g></svg>