<svg xmlns="http://www.w3.org/2000/svg" viewBox="0 0 357.63 400.71"><defs><style>.cls-1{fill:#dd2c29;}</style></defs><title>2-Shield</title><g id="Layer_2" data-name="Layer 2"><g id="Layer_1-2" data-name="Layer 1"><path class="cls-1" d="M180.89,400.71l-7-3.62a299.65,299.65,0,0,1-108.39-94C43.19,271.55,26.22,234.9,15,194.18-3.89,125.2.34,68.75.53,66.38l.8-10L178.26,0,355.91,54l.93,10c.22,2.37,5.19,58.76-12.83,128-10.64,40.86-27.13,77.73-49,109.6A299.65,299.65,0,0,1,187.84,397ZM30.07,78.67A397.76,397.76,0,0,0,44.23,187.18c10.31,37.18,25.82,70.52,46.1,99.1a269.23,269.23,0,0,0,90.33,80.42,269.23,269.23,0,0,0,89.6-82.07c19.91-29,35-62.69,44.72-100.17a396,396,0,0,0,12.5-107.74l-149-45.31Z"/><path class="cls-1" d="M123.3,264v-27.4h52.2c9.7,0,16.6-1.1,20.8-3.4c4.2-2.3,6.3-6.4,6.3-12.4v-7.1c0-10.7-7.4-16.4-22.3-17 l-41.8-1.6v-26.2l40.5-2.3c7.2-0.3,12.6-1.6,16.3-3.9c3.7-2.3,5.5-5.9,5.5-10.8V146c0-6.1-2.1-10.7-6.2-13.6 c-4.1-2.9-10.9-4.4-20.2-4.4H127V101c23.3-3.7,43.6-5.4,60.9-5.1c15,0.2,26.5,3.8,34.5,10.9c8,7.1,12,17.5,12,31.2v12.6 c0,8.4-1.9,15.2-5.7,20.3c-3.8,5.1-9,8.8-15.4,10.9c6.7,2,12.4,6.2,16.9,12.6c4.5,6.4,6.8,14.3,6.8,23.7v8.7 c0,13.5-4.3,23.8-12.8,31c-8.5,7.2-20.4,10.8-35.8,10.8C164.3,268.8,142.6,267.2,123.3,264z"/></g></g></svg>