<svg xmlns="http://www.w3.org/2000/svg" viewBox="0 0 357.63 400.71"><defs><style>.cls-1{fill:#FFFFFF;}</style></defs><path class="cls-1" d="M180.89,400.71l-7-3.62a299.65,299.65,0,0,1-108.39-94C43.19,271.55,26.22,234.9,15,194.18-3.89,125.2.34,68.75.53,66.38l.8-10L178.26,0,355.91,54l.93,10c.22,2.37,5.19,58.76-12.83,128-10.64,40.86-27.13,77.73-49,109.6A299.65,299.65,0,0,1,187.84,397ZM30.07,78.67A397.76,397.76,0,0,0,44.23,187.18c10.31,37.18,25.82,70.52,46.1,99.1a269.23,269.23,0,0,0,90.33,80.42,269.23,269.23,0,0,0,89.6-82.07c19.91-29,35-62.69,44.72-100.17a396,396,0,0,0,12.5-107.74l-149-45.31Z"/><path class="cls-1" d="M132.36,100.84q-1.66-1.66-1.66-5.29V75.75h7V94.36a1.65,1.65,0,0,0,1.87,1.87h7.78v6.26h-9.68Q134,102.49,132.36,100.84Z"/><path class="cls-1" d="M157.24,75.75h7v26.75h-7Z"/><path class="cls-1" d="M175.38,75.75h5.54l9.4,14.9V75.75h7v26.75h-5.54l-9.4-14.9v14.9h-7Z"/><path class="cls-1" d="M208.46,96.34v-14q0-3.56,2-5.09a7.41,7.41,0,0,1,4.7-1.53,117.85,117.85,0,0,1,11.81.54v5.9h-9.65q-1.84,0-1.84,1.58V86l9.68.36v5.54l-9.68.36v2a2.06,2.06,0,0,0,.41,1.4,1.43,1.43,0,0,0,1.13.47h9.94v5.9q-2.23.32-5.38.49t-6,.16Q208.46,102.71,208.46,96.34Z"/><path class="cls-1" d="M128.2,291v-32.9h46c8,0,13.5-0.6,16.4-1.9c2.9-1.3,4.3-3.6,4.3-7v-4c0-6.9-5.4-10.6-16.2-11l-37.6-1.7 v-31.7l35.7-2.3c5.8-0.3,10-1.1,12.6-2.5c2.6-1.4,3.9-3.7,3.9-6.8v-1.9c0-4.2-1.4-7.1-4.3-8.8c-2.9-1.6-8.1-2.4-15.5-2.4h-43.1 v-32.9c11.3-2,21.7-3.5,31.2-4.5c9.6-1.1,19.1-1.5,28.5-1.4c13.9,0.3,24.7,3.7,32.3,10.2c7.6,6.5,11.4,16.4,11.4,29.7v10.6 c0,7.5-1.4,13.6-4.2,18.4c-2.8,4.8-7.3,8.3-13.5,10.6c6.5,2.1,11.4,6.2,14.8,12.2c3.4,6.1,5.1,13.4,5.1,22.2v6.1 c0,12.7-4,22.4-12,29.2c-8,6.8-19.2,10.2-33.6,10.2C167.9,296.7,147.2,294.8,128.2,291z"/></svg>