<svg xmlns="http://www.w3.org/2000/svg" viewBox="0 0 357.63 400.71"><defs><style>.cls-1{fill:#FFFFFF;}</style></defs><title>2-Shield</title><g id="Layer_2" data-name="Layer 2"><g id="Layer_1-2" data-name="Layer 1"><path class="cls-1" d="M180.89,400.71l-7-3.62a299.65,299.65,0,0,1-108.39-94C43.19,271.55,26.22,234.9,15,194.18-3.89,125.2.34,68.75.53,66.38l.8-10L178.26,0,355.91,54l.93,10c.22,2.37,5.19,58.76-12.83,128-10.64,40.86-27.13,77.73-49,109.6A299.65,299.65,0,0,1,187.84,397ZM30.07,78.67A397.76,397.76,0,0,0,44.23,187.18c10.31,37.18,25.82,70.52,46.1,99.1a269.23,269.23,0,0,0,90.33,80.42,269.23,269.23,0,0,0,89.6-82.07c19.91-29,35-62.69,44.72-100.17a396,396,0,0,0,12.5-107.74l-149-45.31Z"/><path class="cls-1" d="M121.44,236.69l54.72-55.18q9.19-9,13.45-16.09a28.35,28.35,0,0,0,4.25-14.72q0-8.5-4.83-12.53t-15.87-4H124.66v-31.5q15.87-3,28.28-4.6a218.25,218.25,0,0,1,27.82-1.61q29,0,40.93,11.84t12,35.52q0,16.33-6.32,29T207.44,199l-33.57,33.8h64.61v35.64h-117Z"/></g></g></svg>