<svg xmlns="http://www.w3.org/2000/svg" viewBox="0 0 357.63 400.71"><defs><style>.cls-1{fill:#dd2c29;}</style></defs><title>2-Shield</title><g id="Layer_2" data-name="Layer 2"><g id="Layer_1-2" data-name="Layer 1"><path class="cls-1" d="M180.89,400.71l-7-3.62a299.65,299.65,0,0,1-108.39-94C43.19,271.55,26.22,234.9,15,194.18-3.89,125.2.34,68.75.53,66.38l.8-10L178.26,0,355.91,54l.93,10c.22,2.37,5.19,58.76-12.83,128-10.64,40.86-27.13,77.73-49,109.6A299.65,299.65,0,0,1,187.84,397ZM30.07,78.67A397.76,397.76,0,0,0,44.23,187.18c10.31,37.18,25.82,70.52,46.1,99.1a269.23,269.23,0,0,0,90.33,80.42,269.23,269.23,0,0,0,89.6-82.07c19.91-29,35-62.69,44.72-100.17a396,396,0,0,0,12.5-107.74l-149-45.31Z"/><path class="cls-1" d="M125.1,264.9V238h60c7.7,0,13.2-1.8,16.6-5.5c3.4-3.7,5.1-8.3,5.1-13.8v-11.7c0-11.6-5.8-17.5-17.5-17.5 h-13.3c-5.1,0-8.9,1-11.4,3.1s-4.2,5.3-4.9,9.5h-32.2l4.8-104.8h102.1v30.6h-72.9l-1.8,40.5c2.3-2.5,5.5-4.3,9.5-5.6 c4.1-1.3,8.6-2,13.7-2h18.6c12.7,0,22.5,3.7,29.3,11.2c6.8,7.4,10.2,17.1,10.2,28.9v25.1c0,14.7-4.8,25.5-14.5,32.4 c-9.7,6.9-23.9,10.3-42.8,10.3C168.9,268.6,149.3,267.3,125.1,264.9z"/></g></g></svg>