<svg xmlns="http://www.w3.org/2000/svg" viewBox="0 0 357.63 400.71"><defs><style>.cls-1{fill:#dd2c29;}</style></defs><path class="cls-1" d="M180.89,400.71l-7-3.62a299.65,299.65,0,0,1-108.39-94C43.19,271.55,26.22,234.9,15,194.18-3.89,125.2.34,68.75.53,66.38l.8-10L178.26,0,355.91,54l.93,10c.22,2.37,5.19,58.76-12.83,128-10.64,40.86-27.13,77.73-49,109.6A299.65,299.65,0,0,1,187.84,397ZM30.07,78.67A397.76,397.76,0,0,0,44.23,187.18c10.31,37.18,25.82,70.52,46.1,99.1a269.23,269.23,0,0,0,90.33,80.42,269.23,269.23,0,0,0,89.6-82.07c19.91-29,35-62.69,44.72-100.17a396,396,0,0,0,12.5-107.74l-149-45.31Z"/><path class="cls-1" d="M132.36,100.84q-1.66-1.66-1.66-5.29V75.75h7V94.36a1.65,1.65,0,0,0,1.87,1.87h7.78v6.26h-9.68Q134,102.49,132.36,100.84Z"/><path class="cls-1" d="M157.24,75.75h7v26.75h-7Z"/><path class="cls-1" d="M175.38,75.75h5.54l9.4,14.9V75.75h7v26.75h-5.54l-9.4-14.9v14.9h-7Z"/><path class="cls-1" d="M208.46,96.34v-14q0-3.56,2-5.09a7.41,7.41,0,0,1,4.7-1.53,117.85,117.85,0,0,1,11.81.54v5.9h-9.65q-1.84,0-1.84,1.58V86l9.68.36v5.54l-9.68.36v2a2.06,2.06,0,0,0,.41,1.4,1.43,1.43,0,0,0,1.13.47h9.94v5.9q-2.23.32-5.38.49t-6,.16Q208.46,102.71,208.46,96.34Z"/><path class="cls-1" d="M164.6,176.2h-24.9V150l29.5-12.7h36.3v158.1h-40.9V176.2z"/></svg>